<mxfile host="app.diagrams.net" agent="Mozilla/5.0 (Windows NT 10.0; Win64; x64) AppleWebKit/537.36 (KHTML, like Gecko) Chrome/133.0.0.0 Safari/537.36" version="26.0.8">
  <diagram id="sHLM1WUIcSf7jeSLr0Zp" name="페이지-2">
    <mxGraphModel dx="2230" dy="776" grid="1" gridSize="10" guides="1" tooltips="1" connect="1" arrows="1" fold="1" page="1" pageScale="1" pageWidth="827" pageHeight="1169" math="0" shadow="0">
      <root>
        <mxCell id="0" />
        <mxCell id="1" parent="0" />
        <mxCell id="WICqnfiYOKUODWsPUGrs-3" value="배포 환경 AWS LIGHTSAIL" style="swimlane;whiteSpace=wrap;html=1;" vertex="1" parent="1">
          <mxGeometry x="450" y="320" width="880" height="740" as="geometry">
            <mxRectangle x="400" y="370" width="150" height="30" as="alternateBounds" />
          </mxGeometry>
        </mxCell>
        <mxCell id="WICqnfiYOKUODWsPUGrs-6" value="컨테이너" style="swimlane;whiteSpace=wrap;html=1;" vertex="1" parent="WICqnfiYOKUODWsPUGrs-3">
          <mxGeometry x="76" y="170" width="710" height="540" as="geometry" />
        </mxCell>
        <mxCell id="WICqnfiYOKUODWsPUGrs-17" style="edgeStyle=orthogonalEdgeStyle;rounded=0;orthogonalLoop=1;jettySize=auto;html=1;" edge="1" parent="WICqnfiYOKUODWsPUGrs-6" source="WICqnfiYOKUODWsPUGrs-8" target="WICqnfiYOKUODWsPUGrs-9">
          <mxGeometry relative="1" as="geometry" />
        </mxCell>
        <mxCell id="WICqnfiYOKUODWsPUGrs-18" style="edgeStyle=orthogonalEdgeStyle;rounded=0;orthogonalLoop=1;jettySize=auto;html=1;entryX=0.5;entryY=0;entryDx=0;entryDy=0;" edge="1" parent="WICqnfiYOKUODWsPUGrs-6" source="WICqnfiYOKUODWsPUGrs-8" target="WICqnfiYOKUODWsPUGrs-10">
          <mxGeometry relative="1" as="geometry" />
        </mxCell>
        <mxCell id="WICqnfiYOKUODWsPUGrs-19" style="edgeStyle=orthogonalEdgeStyle;rounded=0;orthogonalLoop=1;jettySize=auto;html=1;entryX=0.5;entryY=0;entryDx=0;entryDy=0;entryPerimeter=0;" edge="1" parent="WICqnfiYOKUODWsPUGrs-6" target="WICqnfiYOKUODWsPUGrs-16">
          <mxGeometry relative="1" as="geometry">
            <mxPoint x="167.99999999999977" y="121" as="sourcePoint" />
            <mxPoint x="390" y="251" as="targetPoint" />
            <Array as="points">
              <mxPoint x="168" y="191" />
              <mxPoint x="390" y="191" />
            </Array>
          </mxGeometry>
        </mxCell>
        <mxCell id="WICqnfiYOKUODWsPUGrs-8" value="웹 서버 Nginx" style="rounded=0;whiteSpace=wrap;html=1;fillColor=light-dark(#33FF33,var(--ge-dark-color, #121212));" vertex="1" parent="WICqnfiYOKUODWsPUGrs-6">
          <mxGeometry x="108" y="66" width="120" height="60" as="geometry" />
        </mxCell>
        <mxCell id="WICqnfiYOKUODWsPUGrs-27" style="edgeStyle=orthogonalEdgeStyle;rounded=0;orthogonalLoop=1;jettySize=auto;html=1;entryX=0.5;entryY=0;entryDx=0;entryDy=0;" edge="1" parent="WICqnfiYOKUODWsPUGrs-6" source="WICqnfiYOKUODWsPUGrs-9" target="WICqnfiYOKUODWsPUGrs-24">
          <mxGeometry relative="1" as="geometry" />
        </mxCell>
        <mxCell id="WICqnfiYOKUODWsPUGrs-9" value="서비스 Django" style="rounded=0;whiteSpace=wrap;html=1;fillColor=light-dark(#9933FF,var(--ge-dark-color, #121212));" vertex="1" parent="WICqnfiYOKUODWsPUGrs-6">
          <mxGeometry x="30" y="256" width="120" height="60" as="geometry" />
        </mxCell>
        <mxCell id="WICqnfiYOKUODWsPUGrs-28" style="edgeStyle=orthogonalEdgeStyle;rounded=0;orthogonalLoop=1;jettySize=auto;html=1;" edge="1" parent="WICqnfiYOKUODWsPUGrs-6" source="WICqnfiYOKUODWsPUGrs-10" target="WICqnfiYOKUODWsPUGrs-25">
          <mxGeometry relative="1" as="geometry" />
        </mxCell>
        <mxCell id="WICqnfiYOKUODWsPUGrs-10" value="서비스 Fast API 1" style="rounded=0;whiteSpace=wrap;html=1;fillColor=light-dark(#FF00FF,var(--ge-dark-color, #121212));" vertex="1" parent="WICqnfiYOKUODWsPUGrs-6">
          <mxGeometry x="180" y="256" width="120" height="60" as="geometry" />
        </mxCell>
        <mxCell id="WICqnfiYOKUODWsPUGrs-29" style="edgeStyle=orthogonalEdgeStyle;rounded=0;orthogonalLoop=1;jettySize=auto;html=1;entryX=0.5;entryY=0;entryDx=0;entryDy=0;" edge="1" parent="WICqnfiYOKUODWsPUGrs-6" source="WICqnfiYOKUODWsPUGrs-16" target="WICqnfiYOKUODWsPUGrs-25">
          <mxGeometry relative="1" as="geometry" />
        </mxCell>
        <mxCell id="WICqnfiYOKUODWsPUGrs-16" value="서비스 Fast API 2" style="rounded=0;whiteSpace=wrap;html=1;fillColor=light-dark(#FF00FF,var(--ge-dark-color, #121212));" vertex="1" parent="WICqnfiYOKUODWsPUGrs-6">
          <mxGeometry x="330" y="256" width="120" height="60" as="geometry" />
        </mxCell>
        <mxCell id="WICqnfiYOKUODWsPUGrs-21" value="Load Balancing" style="text;html=1;align=center;verticalAlign=middle;resizable=0;points=[];autosize=1;strokeColor=none;fillColor=none;" vertex="1" parent="WICqnfiYOKUODWsPUGrs-6">
          <mxGeometry x="258" y="206" width="110" height="30" as="geometry" />
        </mxCell>
        <mxCell id="WICqnfiYOKUODWsPUGrs-24" value="DB Postgresql 1" style="rounded=0;whiteSpace=wrap;html=1;fillColor=light-dark(#FFCCE6,var(--ge-dark-color, #121212));" vertex="1" parent="WICqnfiYOKUODWsPUGrs-6">
          <mxGeometry x="30" y="386" width="120" height="60" as="geometry" />
        </mxCell>
        <mxCell id="WICqnfiYOKUODWsPUGrs-25" value="DB Postgresql 2" style="rounded=0;whiteSpace=wrap;html=1;fillColor=light-dark(#FFCCE6,var(--ge-dark-color, #121212));" vertex="1" parent="WICqnfiYOKUODWsPUGrs-6">
          <mxGeometry x="253" y="386" width="120" height="60" as="geometry" />
        </mxCell>
        <mxCell id="WICqnfiYOKUODWsPUGrs-34" value="모니터링" style="swimlane;whiteSpace=wrap;html=1;" vertex="1" parent="WICqnfiYOKUODWsPUGrs-6">
          <mxGeometry x="474" y="170" width="200" height="200" as="geometry" />
        </mxCell>
        <mxCell id="WICqnfiYOKUODWsPUGrs-12" value="Prometheus" style="rounded=0;whiteSpace=wrap;html=1;fillColor=light-dark(#FFFF99,var(--ge-dark-color, #121212));" vertex="1" parent="WICqnfiYOKUODWsPUGrs-34">
          <mxGeometry x="40" y="40" width="120" height="60" as="geometry" />
        </mxCell>
        <mxCell id="WICqnfiYOKUODWsPUGrs-11" value="Grafana" style="rounded=0;whiteSpace=wrap;html=1;fillColor=light-dark(#BE99FF,var(--ge-dark-color, #121212));" vertex="1" parent="WICqnfiYOKUODWsPUGrs-34">
          <mxGeometry x="40" y="120" width="120" height="60" as="geometry" />
        </mxCell>
        <mxCell id="WICqnfiYOKUODWsPUGrs-30" value="" style="edgeStyle=orthogonalEdgeStyle;rounded=0;orthogonalLoop=1;jettySize=auto;html=1;" edge="1" parent="WICqnfiYOKUODWsPUGrs-3" source="WICqnfiYOKUODWsPUGrs-7" target="WICqnfiYOKUODWsPUGrs-13">
          <mxGeometry relative="1" as="geometry" />
        </mxCell>
        <mxCell id="WICqnfiYOKUODWsPUGrs-7" value="도커 Docker" style="rounded=0;whiteSpace=wrap;html=1;fillColor=light-dark(#0000FF,var(--ge-dark-color, #121212));" vertex="1" parent="WICqnfiYOKUODWsPUGrs-3">
          <mxGeometry x="200" y="70" width="100" height="50" as="geometry" />
        </mxCell>
        <mxCell id="WICqnfiYOKUODWsPUGrs-31" style="edgeStyle=orthogonalEdgeStyle;rounded=0;orthogonalLoop=1;jettySize=auto;html=1;" edge="1" parent="WICqnfiYOKUODWsPUGrs-3" source="WICqnfiYOKUODWsPUGrs-13" target="WICqnfiYOKUODWsPUGrs-6">
          <mxGeometry relative="1" as="geometry" />
        </mxCell>
        <mxCell id="WICqnfiYOKUODWsPUGrs-13" value="Docker-Compose" style="rounded=0;whiteSpace=wrap;html=1;fillColor=light-dark(#54A3FF,var(--ge-dark-color, #121212));" vertex="1" parent="WICqnfiYOKUODWsPUGrs-3">
          <mxGeometry x="381" y="70" width="100" height="50" as="geometry" />
        </mxCell>
        <mxCell id="WICqnfiYOKUODWsPUGrs-33" style="edgeStyle=orthogonalEdgeStyle;rounded=0;orthogonalLoop=1;jettySize=auto;html=1;" edge="1" parent="1" source="WICqnfiYOKUODWsPUGrs-4" target="WICqnfiYOKUODWsPUGrs-8">
          <mxGeometry relative="1" as="geometry" />
        </mxCell>
        <mxCell id="WICqnfiYOKUODWsPUGrs-4" value="사용자" style="swimlane;whiteSpace=wrap;html=1;" vertex="1" parent="1">
          <mxGeometry x="-180" y="561" width="100" height="50" as="geometry" />
        </mxCell>
        <mxCell id="WICqnfiYOKUODWsPUGrs-5" value="User" style="text;html=1;align=center;verticalAlign=middle;resizable=0;points=[];autosize=1;strokeColor=none;fillColor=none;" vertex="1" parent="WICqnfiYOKUODWsPUGrs-4">
          <mxGeometry x="25" y="20" width="50" height="30" as="geometry" />
        </mxCell>
        <mxCell id="WICqnfiYOKUODWsPUGrs-14" value="CI/CD" style="swimlane;whiteSpace=wrap;html=1;" vertex="1" parent="1">
          <mxGeometry x="214" y="335" width="200" height="140" as="geometry" />
        </mxCell>
        <mxCell id="WICqnfiYOKUODWsPUGrs-15" value="Git Actions" style="rounded=0;whiteSpace=wrap;html=1;fillColor=light-dark(#E6E6E6,var(--ge-dark-color, #121212));" vertex="1" parent="WICqnfiYOKUODWsPUGrs-14">
          <mxGeometry x="40" y="50" width="120" height="60" as="geometry" />
        </mxCell>
        <mxCell id="WICqnfiYOKUODWsPUGrs-35" style="edgeStyle=orthogonalEdgeStyle;rounded=0;orthogonalLoop=1;jettySize=auto;html=1;entryX=0;entryY=0.5;entryDx=0;entryDy=0;" edge="1" parent="1" source="WICqnfiYOKUODWsPUGrs-15" target="WICqnfiYOKUODWsPUGrs-7">
          <mxGeometry relative="1" as="geometry" />
        </mxCell>
        <mxCell id="WICqnfiYOKUODWsPUGrs-36" value="&lt;div&gt;외부 서비스&lt;/div&gt;" style="swimlane;whiteSpace=wrap;html=1;" vertex="1" parent="1">
          <mxGeometry x="214" y="696" width="200" height="200" as="geometry" />
        </mxCell>
        <mxCell id="WICqnfiYOKUODWsPUGrs-37" value="카카오 Open API&lt;div&gt;카카오톡 아이디 연계&lt;/div&gt;" style="rounded=0;whiteSpace=wrap;html=1;fillColor=light-dark(#FFFF00,var(--ge-dark-color, #121212));" vertex="1" parent="WICqnfiYOKUODWsPUGrs-36">
          <mxGeometry x="40" y="50" width="120" height="60" as="geometry" />
        </mxCell>
        <mxCell id="WICqnfiYOKUODWsPUGrs-39" style="edgeStyle=orthogonalEdgeStyle;rounded=0;orthogonalLoop=1;jettySize=auto;html=1;entryX=1;entryY=0.5;entryDx=0;entryDy=0;" edge="1" parent="1" source="WICqnfiYOKUODWsPUGrs-9" target="WICqnfiYOKUODWsPUGrs-37">
          <mxGeometry relative="1" as="geometry" />
        </mxCell>
      </root>
    </mxGraphModel>
  </diagram>
</mxfile>
